<?xml version="1.0"?><svg version="1.2" baseProfile="tiny-ps" viewBox="0 0 272 272" xmlns="http://www.w3.org/2000/svg" xmlns:xlink="http://www.w3.org/1999/xlink"><title>PeakTrials
</title><g><g fill="#fbfbfb" transform="matrix(.1 0 0 -.1 0 272)"><path d="M0 1360V0h2720v2720H0V1360z"/></g><g fill="#d1d1d1" transform="matrix(.1 0 0 -.1 0 272)"><path d="M565 2623c-11-3-33-14-49-26l-28-20-19-41-19-41v-35c0-19 4-41 9-49s7-20 4-28l-5-13-24 6-25 6-17-15c-9-8-36-24-59-36-22-11-50-32-62-47l-20-26-7-37c-4-20-15-53-25-73l-19-37v-98l25-37 26-38-15-61c-8-34-17-80-20-102l-6-40 19-12 19-12 12-58 12-58 26-39c15-21 37-45 49-53l23-15 82-14c46-7 115-20 153-29 39-8 86-17 106-20l37-5 6-41 6-40-9-17-9-16 5-51 5-51-98-19c-108-20-204-52-274-92l-45-26-117-119c-65-66-118-124-118-129s8-9 18-9h18l104 91c58 50 118 102 133 116 16 14 45 31 64 39l35 15-8-13c-4-7-15-22-25-33l-18-20 7-12 7-11 110 9c61 4 121 11 135 15l25 7-8-8c-4-5-17-10-29-12-65-10-194-121-236-202-12-23-19-41-16-41 4 0 1-6-5-14l-12-14-6-71-6-70 12-61 12-61 28-51c37-66 93-125 158-163l32-19-55-34-54-34v-28h1063c585 0 1066 2 1069 5 6 7-48 281-61 312l-10 22-31 16c-49 25-135 51-256 76l-111 22-7 96c-3 53-13 123-21 156s-15 79-15 103v43l-42 19c-24 10-77 24-118 31l-75 13h-115l-115 1-36-13-37-13-10-27c-6-15-18-70-28-122-9-52-21-101-27-107l-9-13h-52c-28 0-56-4-62-8l-12-7-4-65-5-65-19-42-18-42-26-6c-14-3-49-7-78-9l-53-4 7 17c11 27 13 113 3 164-11 59-52 145-89 186l-29 31 26 20 26 20h47l65 83c36 45 86 113 112 152l47 69 4 58 4 57-26 45-26 45 32 3 33 3 3 17 3 17-76 51-75 51-70 139-70 140h49l8 14 8 15 55-14c30-7 63-16 73-20l17-7v-41c0-118 66-272 147-340l22-19 10 7 11 6-40 50c-22 28-40 56-40 62l1 12 10-18c18-30 95-107 107-107 7 0 12-4 12-10 0-5 11-12 25-16 14-3 25-10 25-15 0-7 62-29 95-34 6-1 18-5 28-9l19-9 86 6c79 5 149 21 162 36 3 3 22 15 42 25 77 39 188 172 188 225 0 11 4 22 9 25 10 6 20 64 27 148l4 57-10 6-10 6 6 11 6 10-12 26c-7 15-16 35-21 44-5 10-9 25-9 33v16l-15 5c-8 4-15 12-15 20s-9 19-20 26-20 18-20 25-10 18-22 24c-13 7-27 18-31 25-4 8-13 14-19 14s-19 6-27 13c-9 8-43 22-76 32l-60 19-75-1h-75l-55-15c-31-8-71-22-89-31-19-9-40-17-48-17h-13v-30h-14c-8 0-21-8-28-18s-20-22-28-27c-30-16 66 77 100 97 47 29 46 28 31 37l-13 8-41-20-42-20-60-61-60-61-39-78c-22-42-41-77-44-77-15 0-133 34-159 46-17 7-38 14-47 14h-16v21l-10-6-9-6-102 27-102 26-32-5-33-5-8 8c-5 4-33 11-61 15l-53 7v-19l-32 6-33 7-6 44c-3 25-14 61-23 81l-18 36 26 26c15 15 32 26 38 24l10-2 12 32c6 18 17 38 23 44l13 13 23-22c13-12 28-22 34-22h12l3 23c6 34-16 119-43 167l-24 43-35 28-35 28-45 4c-25 3-54 3-65 0zm1422-504 57-22 46-46c25-25 54-64 65-86l19-40 4-75 4-75-21-55c-12-30-36-75-55-100l-33-45-54-32-55-33-57-11-57-12-66 16-66 17-47 35c-74 54-129 146-131 218v27h10c6 0 50-10 97-22l87-22 24-27 23-28 34-10 34-9 33 7c69 16 102 49 112 112l6 34-13 35-12 34-34 23-34 23h-39c-46 0-70-11-119-55l-36-32-81 20-82 20 6 21c3 12 22 45 42 75l36 53 39 26c21 14 62 34 90 43l52 18 57 1h57l58-21zM922 1974c4-3 8-11 8-19v-13l31-11 32-11-8-32c-13-60-24-182-25-278l-1-95-19 49c-10 26-26 56-35 66-18 20-84 50-195 89-41 14-86 34-98 43l-24 16-1 29c-1 15 4 54 12 86l15 59 25-6c14-3 40-9 56-12l30-5 45 30 45 31 49-6c28-3 53-7 58-10zm-115-960c-3-3-12-4-19-1l-13 5 19 1c11 1 17-2 13-5zm51-148c-2-8-39-52-84-98-44-46-86-93-92-105l-12-22v-78l23-34 23-34 38-13 39-12 34 6 34 6 29 24 28 24 48 120 47 120 12-10c7-6 20-35 30-66l18-56-6-54-6-54-27-51-28-51-33-25c-39-30-124-63-161-63-16 0-52 7-81 16l-52 15-40 36c-22 20-52 57-67 82l-27 46 1 75v75l21 40c12 22 38 57 59 77l37 38 51 19 51 20h48l48 1-3-14zm37-46 6-9-26-41-25-40h-20c-10 0-21 4-24 9l-6 9 37 41c38 42 48 48 58 31zm79-67c-9-21-20-50-26-65-5-16-14-28-19-28-14 0-11 16 9 52 10 18 24 43 31 56 19 36 23 25 5-15zm182-390c-2-10-7-44-11-75l-6-58H989l13 13c7 6 25 18 40 26 16 8 47 36 70 63 47 53 52 56 44 31z"/></g><g fill="#999" transform="matrix(.1 0 0 -.1 0 272)"><path d="M534 2601c-39-24-61-55-75-104l-10-38 11-35 12-35-6-15-6-15-19 10-19 11-72-42-71-41-13-26c-8-14-17-42-21-61s-16-53-27-74l-20-40 6-45 6-46 22-30 22-29-17-82c-9-45-17-91-17-103v-21l20-20 20-20v-20c0-10 9-44 20-74l21-55 34-29 34-30 28-6c15-3 66-13 113-21s103-19 125-25c22-5 57-10 78-10h37l2-22c0-13 2-63 3-111l1-89-21-8c-11-4-59-15-105-24-46-8-115-28-154-42l-71-27-47-34c-50-36-248-239-248-254 0-22 29-2 153 107 121 107 188 154 218 154h11l-31-36-32-36 4-11 3-11 65 3c35 1 109 9 164 17 55 7 111 13 125 13l25-1-75-14c-83-16-115-29-177-71l-41-28-39-50c-49-64-70-107-79-170-10-61-10-131-2-170 9-43 38-108 51-113 4-2 7-10 7-17 0-8 25-39 56-69l55-56h15c8 0 14-4 14-9s10-11 23-15l22-6-45-26c-25-14-53-33-62-41l-18-16 6-8 5-9h2110l4 13c3 7-8 76-24 155l-28 143-18 19-18 20-56 20c-72 28-247 70-287 70h-31l-7 87c-4 49-16 134-27 190s-18 107-17 114l3 12-31 18-30 19-80 15-79 15-120 1-120 1-37-15-37-16-7-28c-4-15-17-73-28-128l-21-100-60-5c-33-3-66-9-72-13l-13-8V605l-19-42-19-42-39-10c-21-6-60-11-87-11h-48l10 13 11 13-1 84c-1 47-5 93-10 103-4 9-12 26-18 37-5 11-10 27-10 35s-4 15-10 15c-5 0-10 6-10 13s-15 29-33 49l-34 37 28 20 28 21h47l59 77c83 108 132 177 155 223l20 39v76l-25 44c-14 23-25 45-25 46 0 2 12 5 27 7l28 3 3 17 3 16-71 49-72 48-69 137c-38 76-69 140-69 143s8 5 17 5 24 7 34 16l17 16 70-17 70-17 7-66c4-37 16-96 27-131l20-65 34-53c31-48 79-92 89-81 3 3-6 18-21 34-27 31-57 84-69 123l-7 24 11-7c6-4 11-16 11-27v-19h10c6 0 15-11 20-25s14-25 20-25c5 0 10-6 10-13v-12l53-40c58-45 95-63 183-92l32-10 83 2 84 3 30 12c90 37 118 55 179 113 37 36 55 59 72 97 4 8 12 21 18 29 20 25 37 86 43 153l6 67-12 62c-7 34-19 72-28 85-8 13-15 27-16 31-2 20-34 64-49 69-10 3-18 11-18 18 0 14-46 50-100 80-47 25-91 36-173 43l-69 5-61-12-62-12-55-26-55-27-55-53c-30-28-56-52-57-52s7 15 18 34c21 36 75 86 122 114 15 9 27 20 27 25v8l-22-6c-35-11-95-52-134-93-38-39-107-151-119-191l-7-23-41 6c-23 4-73 18-112 31-38 13-126 38-194 55l-124 31-29-6-29-7-12 10c-7 5-31 12-54 16l-42 6-5-8-5-9-38 6-38 6-5 50-6 50-17 32c-21 39-21 43-2 43h16l6 16c3 8 16 19 28 24l22 8 6 31 7 31 16 7 15 6 29-21c33-25 40-20 40 24v33l-21 58-22 58-47 48-47 47H565l-31-19zm1444-475c22-8 58-26 80-41l39-26 31-43 31-43 17-62 18-63-11-62c-14-81-35-125-90-186l-44-49-57-28-57-28h-160l-56 27-56 28-37 36c-20 19-45 53-56 75-21 40-42 128-34 140 2 4 48-4 101-18l97-24 38-35 38-34h85l32 20 32 19 16 30 15 30v79l-25 31-26 30-34 11-34 11-41-11-42-11-34-35c-39-38-36-37-84-25-19 6-54 15-77 21l-43 11v15c0 19 34 83 58 109 41 45 73 68 128 90l59 25h142l41-14zm-497-89-12-12 7 18c3 10 9 15 12 12s0-11-7-18zm-576-53 21-5 9-22 10-22 23-3 24-4-6-36c-3-20-10-115-15-211-6-95-13-176-16-179s-5 2-5 12-9 39-21 65l-20 49-47 25c-26 14-91 41-146 61-54 19-107 43-117 52l-19 17v34c0 19 7 57 16 85l17 50 36-7c20-4 48-8 63-8h28l32 26 33 26h40c22 1 49-2 60-5zm532-46-5-13-1 19c-1 11 2 17 5 13 3-3 4-12 1-19zm-20-145-5-18v70l5-17c2-10 2-26 0-35zm20-125-5-13v50l5-12c2-7 2-19 0-25zM864 872l5-9-93-100-94-101-7-31-7-31 12-35 11-34 30-26 31-25h93l31 19 30 18 53 129c29 71 55 131 57 133s15-20 29-50l25-54V557l-12-38-11-39-34-40c-19-22-55-52-79-66l-44-26-59-5-58-6-50 17-50 17-41 35-41 35-26 54-27 55 4 73 3 74 30 48c35 57 88 101 141 120l39 14 52 1h52l5-8zm33-47 5-16-23-44-24-45-13 5c-8 3-25 5-38 5h-25l48 55c51 59 60 64 70 40zm70-100c-31-75-40-87-50-62l-5 14 36 61c20 34 40 62 44 62 3 0-7-34-25-75zm192-362c-4-27-8-67-8-90l-1-43H979l15 15c8 8 19 15 25 15s19 8 29 18c9 9 28 26 42 37 27 23 47 50 56 78 4 9 10 17 14 17h7l-8-47z"/></g><g fill="#696969" transform="matrix(.1 0 0 -.1 0 272)"><path d="m540 2602-35-17-23-45-23-45 6-68 6-69-29 7-29 6-62-36-61-36-15-23c-8-12-18-38-21-57-4-18-15-51-25-71l-19-37v-98l24-35 24-36-8-38c-5-22-13-66-20-98l-12-60 16-12 17-12 20-72 19-71 23-31c12-16 35-37 51-45 26-14 147-39 316-67l75-12 7-43 7-43-9-18-9-17 6-50 5-50-108-23c-60-12-143-35-185-51l-77-30-48-41c-59-51-233-230-234-240 0-19 23-1 147 107l131 115 48 24c27 14 51 23 53 20 2-2-10-21-27-43-17-21-28-41-25-45 11-10 113-6 218 9 55 8 116 15 135 15h35l-15-9c-8-6-17-8-21-5-14 8-116-17-165-41-56-28-144-103-144-123 0-6-4-12-9-12-12 0-46-73-61-129-15-57-15-115 0-187l12-57 25-45c29-51 36-60 75-100 39-39 48-46 91-66l39-18-39-19c-45-23-88-57-81-65 5-4 2110-6 2114-1s-56 288-66 307c-6 11-24 27-40 35-41 21-293 85-335 85h-35v73l-1 72-15 80c-9 44-18 104-21 134l-6 53-36 15c-20 9-74 22-121 29l-85 14h-190l-36-10c-20-6-42-17-49-25l-13-15-23-117c-13-64-26-119-29-122s-34-7-69-9l-64-4-4-72-5-71-18-38-19-37-35-10c-20-5-60-10-90-10h-53l7 17c4 10 9 41 10 68l4 50-11 50c-13 65-53 146-89 183l-28 29 22 21c19 18 40 27 78 31 18 3 202 255 224 308l16 38-6 35c-4 19-18 54-31 78l-25 42h61l2 10c0 6 1 15 2 21l1 10-70 47-70 47-67 130-67 130 2 15 3 15 17-3 17-3 6 16 6 15h17c9 0 46-7 82-17l66-17 6-76 6-76 27-73 27-72 45-50c24-27 47-47 50-44s-4 15-15 28c-12 12-35 49-51 82l-30 60-11 59c-12 63-15 143-6 134 3-3 8-32 11-64 2-33 7-66 11-74 3-8 7-20 8-26 2-7 14-34 28-61l24-50 46-46c25-26 50-47 56-47s11-4 11-10c0-5 11-12 25-16 14-3 25-10 25-15v-9h23c13 0 27-4 33-9 28-26 199-33 258-10 76 29 106 43 106 51 0 4 6 8 14 8 17 0 116 98 116 115 0 7 7 15 15 19l15 5v16c0 8 4 23 9 33 33 65 51 151 45 217-2 22-4 47-5 55-1 21-30 88-64 149-17 31-116 121-132 121-7 0-13 5-13 10v10h-18c-10 0-22 4-28 10-5 5-45 15-87 22l-78 12-75-13-75-12-52-27c-29-15-57-31-64-37-7-5-26-21-43-35-16-13-30-29-30-35 0-5-9-16-20-23l-20-12v-15c0-8-4-15-10-15-5 0-10-7-10-15s-4-23-9-33c-5-9-12-25-15-34-3-10-10-18-16-18h-11l6 23c24 80 138 232 200 264l30 16-13 4-12 5-44-26-44-26-47-52-46-53-36-75c-21-41-37-76-38-77-2-4-150 36-170 46-11 6-74 24-140 42l-120 32-55 3c-84 5-108 8-116 17-4 4-14 7-22 7h-14l5-21 5-20-14 12c-8 6-29 15-47 18l-32 7-6 44c-3 25-14 61-23 81l-18 36 26 26c15 15 33 27 40 27h14l7 27c13 52 48 70 75 38 7-8 19-15 27-15h14l-6 48c-8 56-48 148-78 180-12 13-34 30-49 38l-27 14h-76l-35-18zm1391-462c103-20 180-76 227-165l27-50v-180l-33-67-33-67-41-35c-22-19-61-45-87-57l-46-22-75-5-75-4-56 21-57 22-45 40-46 40-25 52-26 52-6 48-7 47h7c4 0 52-11 106-25l98-25 30-29 29-30 27-7 26-6 35 6 34 7 30 30 30 30 7 34 6 34-12 36-12 37-32 19-31 19h-38c-46 0-71-12-115-54l-33-31-86 23c-47 12-88 24-90 26-9 9 37 95 70 133l36 39 53 27c48 24 112 43 159 46 9 1 40-4 70-9zM921 1980c10-6 19-17 19-24v-14l31-11 31-11-7-27c-15-58-24-162-25-275v-117l-9-5-9-6-12 44c-7 24-20 57-29 73l-18 28-46 23c-25 13-90 38-143 57-54 19-105 41-113 49l-14 15 1 46c1 26 7 55 12 65 6 10 10 28 10 39v20l20 6 19 6 20-10c11-6 33-11 48-11h29l34 25 34 25h97l20-10zM868 866c-2-8-32-46-68-83s-78-83-93-101l-27-34v-41l1-42 13-23c7-13 26-32 42-43l29-19h85l30 27 30 28 49 120c27 66 53 120 57 119 5 0 20-21 34-45l25-44V535l-30-54-30-54-44-33-44-34-41-11-41-11-60 4-60 4-39 19c-22 10-55 34-74 53l-35 35-20 46-21 46v130l21 46 20 46 43 41 44 42 40 14 41 14 63 1 63 1-3-14zm16-100-26-47-37 7c-20 4-37 8-39 9s20 28 49 59l52 57 13-20 14-19-26-46zm86-46c-33-83-44-94-55-60l-6 20 22 38c70 116 86 117 39 2zm190-396c-6-49-14-92-16-96l-5-8H967l18 20c10 11 23 20 29 20 16 0 106 84 106 98 0 7 5 12 10 12 6 0 15 12 21 26 17 47 21 17 9-72z"/></g><g fill="#363636" transform="matrix(.1 0 0 -.1 0 272)"><path d="M560 2609c-14-6-37-22-52-36l-27-26-12-52-11-52 11-22 12-22-6-20-7-20-26 3-27 3-61-32-61-32-16-24c-8-13-19-42-23-63s-15-55-25-74l-19-35v-82l26-39 26-38-5-30c-3-17-13-62-21-101l-15-70 18-15 18-15 17-66 17-66 31-37 31-38 26-10c28-10 192-42 306-59 38-5 71-12 74-14 7-7 8-204 1-215-3-5-56-21-118-35l-112-24-77-32-78-32-129-129-129-128 7-7 6-7 28 25c15 14 71 64 124 112l97 86 51 26c29 14 56 25 61 23l10-3-30-39c-17-21-31-42-31-47v-8l78 4c42 2 126 11 187 19 60 8 111 13 113 11s1-9-3-15l-7-12-19 5c-10 3-36 1-56-5-21-5-46-9-55-9-10 0-18-4-18-10v-9h-19c-10 0-24-7-31-15s-18-15-24-15-19-8-28-19c-8-10-20-20-25-22-14-6-78-92-92-124-7-16-18-39-23-49-6-10-12-51-13-89l-4-71 11-50c5-28 14-55 19-60 5-6 9-18 9-28v-19l15-5c8-4 15-12 15-19 0-8 25-39 56-69l55-56h15c8 0 14-4 14-10v-10h20c29 0 25-16-7-29-16-7-44-25-63-41l-35-29 1058-1h1057v13c0 8-12 72-26 143l-26 129-15 23-15 24-41 18c-50 22-221 66-293 76l-51 6-6 87c-4 47-14 121-22 164s-15 94-15 113v34l-22 14c-13 8-54 22-93 32l-70 18h-140l-140 1-30-15-30-15-25-122c-14-67-29-125-33-130-5-4-36-10-70-13l-62-5-6-70-6-70-16-38-16-37-26-10-26-10h-130l7 23c4 12 6 55 6 96l-2 74-8 11c-5 6-14 30-22 54-7 23-17 42-22 42-4 0-8 6-8 13s-15 29-33 49l-34 37 31 22c16 12 42 25 57 28l28 6 91 120c50 66 100 139 111 163l21 43-4 49-5 49-27 36-27 35h59l11 13 11 14-23 20c-12 11-46 35-76 54l-53 34-69 138-70 138 6 9c4 6 13 10 22 10s24 7 33 15l16 14 76-21 75-20 6-64c12-122 62-247 121-303l26-24v10c0 6-7 16-16 24-9 7-28 38-44 69l-29 57-15 82c-9 46-16 92-16 102v19h30v-33c0-54 22-149 42-182 10-16 22-40 28-52 5-13 14-23 20-23 5 0 10-6 10-13v-13l48-35c79-59 134-84 210-97l53-9 87 14 87 15 15 12c8 7 22 16 30 20 89 41 169 137 208 251 34 98 28 246-12 318-37 66-53 88-68 93l-18 5v31l-20 5c-11 3-20 9-20 14 0 16-100 63-166 77l-49 11-70-4-70-4-53-19c-29-11-58-24-65-31-6-6-16-11-23-11-15 0-134-111-134-126 0-6-7-17-15-24s-15-21-15-31v-19h-20v-50h-31l6 23c15 47 79 159 114 196 20 22 54 51 75 65s34 26 28 26c-21 0-77-39-129-91l-52-51-42-84c-24-46-44-84-47-84-13 0-167 43-180 50-9 5-71 24-137 41l-120 31-79 4-78 3-13 11-12 10-6-7-7-6 13-15 12-15-15 6c-8 3-34 11-56 17l-42 12-6 44c-3 24-15 62-26 84-24 47-24 50-5 50h15l16 25c9 14 22 25 29 25h13l7 30 7 30 20 11 20 11 29-21 29-22v33c0 49-18 104-50 157l-29 47-39 22-40 22-28-1c-16 0-40-5-54-10zm1454-492 53-24 38-38 38-38 25-56 26-56v-70l-1-70-22-57-22-57-44-48-43-49-54-29-53-29-87-4-87-4-63 29-63 30-37 38c-45 45-75 103-87 169l-9 48 13 4c7 3 56-6 109-19l96-25 35-31c20-17 46-33 60-37l24-6 34 11c19 7 44 22 56 35l23 24 8 37 8 38-9 26c-6 14-20 36-31 48l-21 23-35 6-34 7-38-12-39-12-21-29-21-30h-22c-25 0-166 36-174 44-3 2 0 21 7 40l11 35 46 51 46 51 48 25c27 13 66 29 86 34l38 9 68-4 68-4 53-24zM896 1989l44-11v-30l31-11 31-12-7-30c-3-16-10-115-16-220-6-104-14-193-18-197l-7-8-22 74-22 75-42 25c-24 14-90 42-148 62l-105 37-24 21-23 21 5 45c3 25 12 63 19 85l13 40 25-2c14-1 41-5 60-8l35-6 45 30c50 34 62 36 126 20zM879 874c2-2-39-51-92-108l-97-106-6-25-6-25 6-33 6-33 29-28 29-28 40-5 41-5 33 20 34 21 24 50 23 50-17 16c-24 24-20 47 20 114 36 60 54 76 54 46v-15l11 3 12 2 28-54 29-53V545l-19-41c-10-22-34-58-52-79l-34-38-50-23-50-24H735l-41 19c-22 10-56 32-75 49l-35 30-24 49-25 48v150l23 45c43 81 110 133 193 149l44 8 40-5c22-2 42-6 44-8zm11-102-25-47h-47c-27 0-48 2-48 5 0 2 26 30 57 62l57 58 16-15 15-16-25-47zm277-429c-5-43-11-88-13-100l-4-23h-95c-52 0-95 1-95 3 0 1 34 27 75 57s75 60 75 66 9 19 20 29 18 20 15 23c-7 7 16 33 24 28l7-5-9-78z"/></g><g fill="#040404" transform="matrix(.1 0 0 -.1 0 272)"><path d="m550 2598-44-23-18-35-18-36v-34c-1-19 1-48 5-65l6-30-10-15-10-15-22 13-21 13-16-14c-10-8-36-24-60-36l-43-22-19-32c-11-18-20-41-20-52 0-12-9-39-21-60l-20-40v-97l25-38 25-38-20-82c-10-45-19-90-19-100v-18l13-5 13-5 23-80 23-80 32-35 31-34 74-16c40-10 86-17 101-17s47-7 70-15l43-15h95l10-13 11-13v-49c0-28 0-75 1-106l1-56-143-35-143-35-55-27-55-27-80-78c-96-94-188-191-160-170 11 8 68 58 128 110l107 94 51 28c28 15 60 27 71 27h20l-36-44c-20-24-36-46-36-48 0-7 116 2 248 18l123 15 10-7 11-6-13-9c-8-5-31-9-51-9s-47-4-60-9c-40-16-63-24-78-27-8-2-16-8-18-13-2-6-9-11-15-11-15 0-107-85-107-99 0-5-6-14-12-18-21-13-47-74-62-143l-13-65 4-35c10-83 10-84 46-160 19-40 51-83 82-111 34-32 60-49 72-49 7 0 13-4 13-10v-10h20c32 0 23-13-24-39-25-13-53-32-62-42l-17-19h1051c579 0 1052 1 1052 3 0 1-13 66-29 145l-28 143-19 20c-29 32-64 47-187 78-95 25-135 33-209 40l-8 1v135l-22 137-23 138-25 10c-53 21-159 40-256 46l-101 7-51-12-51-13-13-15-13-16-26-121-25-121-65-5-64-5-7-72-7-73-21-39-20-40-17-5c-10-3-50-6-90-8l-72-3-7 7-7 8 10 12 11 13-3 65c-1 36-6 84-10 108l-8 42h-8c-5 0-9 6-9 14 0 26-28 69-74 116-11 11-18 21-15 23 2 2 17 13 33 25l29 22h44l29 38c114 142 178 234 194 277l11 29-7 41c-3 22-15 52-25 66s-19 32-21 39l-3 14 29 5c16 3 31 11 33 16l3 10-74 50-74 50-66 133c-36 73-66 139-66 147v15h43l12 17 12 17 69-18c38-10 77-20 87-23l17-4-6-10c-10-16 15-144 41-216l26-68 25-30 25-30-26 43c-30 50-53 133-62 220l-6 62h33l1-17c9-112 39-223 61-223 4 0 8-6 8-14 0-15 76-97 101-109 8-4 28-16 44-27 17-11 37-22 45-26 8-3 26-11 39-17l24-12h98l98 1 28 13c15 7 36 17 45 22 10 5 24 9 32 9s16 7 20 15c3 8 11 15 18 15 8 0 21 8 30 18 21 22 38 39 61 60 9 9 17 22 17 28 0 7 7 14 15 18l15 5v19c0 11 6 25 14 31 13 11 31 66 27 85-1 4 3 13 8 20l10 11-4 89-3 88-10 10c-6 6-8 16-6 23l5 12-16 13c-8 7-15 18-15 24 0 7-6 18-12 25-7 6-13 15-13 19 0 12-71 82-82 82-6 0-13 7-17 15-3 8-12 15-19 15-8 0-20 6-26 14-7 8-27 18-44 22-18 3-37 11-44 16l-12 10h-73c-88-1-118-5-183-27-59-21-127-66-173-117-34-37-82-121-82-143 0-7-7-18-15-25l-14-12-10 7-10 6 16 42c9 23 32 68 51 99l34 57 47 43c26 24 56 49 67 56l19 12-34-16-33-16-57-57-56-58-40-79c-22-43-41-81-43-83-3-6-153 29-176 42-11 5-83 26-160 46l-141 37-34-9-34-8-6 9c-3 5-23 12-44 15l-39 6 12-14 12-15h-10c-6 0-36 8-67 17l-55 17v75l-22 45-21 45 31 29c18 16 39 32 47 36l15 5v38l18 16c23 21 46 22 62 2 7-8 17-15 22-15h10l-7 48c-9 59-29 106-71 158l-32 40-40 12c-51 16-51 16-102-10zm1461-475c26-11 65-38 89-59l42-38 26-50 27-51v-180l-27-56-26-56-37-42-37-41-66-31-66-32-80-1-81-1-56 27-56 26-41 37-41 37-25 51-25 52-6 46-7 47 9 5c4 3 57-8 117-23l109-28 9-16c5-9 22-23 38-31l29-15h73l39 39 39 39v76l-22 33-23 33-34 11-34 11-37-11-36-11-27-30-27-30h-26c-33 0-167 30-177 40l-9 8 26 55 27 55 39 36c80 72 151 96 270 92l75-3 46-20zM945 1967c11-13 28-27 39-31l19-6-7-53c-6-41-23-321-26-399 0-34-18-18-29 28-7 26-21 64-32 85l-19 39-48 24c-26 13-87 38-137 55-49 18-100 39-112 47l-23 14v43c1 23 7 64 14 91l13 50 19 6 19 7 33-14 33-14 22 7c12 4 35 18 52 32l29 24 61-5 60-6 20-24zM865 881c17-3 28-8 26-11-3-3 3-17 12-31l17-26-26-47-26-47-58 2-58 2-27-31c-14-17-30-45-35-63l-9-31 15-38 16-39 34-21c44-25 70-25 111 0l32 19 21 42 22 42-17 38-18 38 43 68c24 37 45 70 47 73 7 8 56-55 76-100l21-45V545l-20-46c-12-25-35-61-52-81l-32-35-52-24-53-23h-75l-75 1-35 18c-19 10-52 31-72 47l-37 29-27 55-27 55 1 70v70l28 55 28 56 36 28c71 56 162 79 245 61zm311-488c-3-21-9-68-12-105l-7-68h-103c-57 0-104 2-104 4s17 15 38 27c20 13 41 29 45 36s12 13 17 13c13 0 60 46 60 59 0 6 5 11 11 11 5 0 15 14 20 30l11 30h31l-7-37z"/></g></g></svg>